<svg width="23" height="24" viewBox="0 0 23 24" fill="none" xmlns="http://www.w3.org/2000/svg">
<path d="M16.8794 10.8584V14.6324C16.8794 14.8777 16.8704 15.1136 16.8434 15.34C16.6365 17.8875 15.2061 19.1517 12.5702 19.1517H12.2104C11.9855 19.1517 11.7695 19.265 11.6346 19.4537L10.5551 20.9633C10.0783 21.6331 9.30459 21.6331 8.82779 20.9633L7.74824 19.4537C7.63129 19.2933 7.37041 19.1517 7.1725 19.1517H6.81265C3.94287 19.1517 2.50348 18.4064 2.50348 14.6324V10.8584C2.50348 8.09391 3.71797 6.59374 6.13794 6.37674C6.35385 6.34843 6.57875 6.33899 6.81265 6.33899H12.5702C15.44 6.33899 16.8794 7.8486 16.8794 10.8584Z" fill="black" stroke="black" stroke-width="1.5" stroke-miterlimit="10" stroke-linecap="round" stroke-linejoin="round"/>
<path d="M20.4782 7.08432V10.8583C20.4782 13.6322 19.2637 15.123 16.8437 15.34C16.8707 15.1135 16.8797 14.8776 16.8797 14.6323V10.8583C16.8797 7.84856 15.4403 6.33895 12.5706 6.33895H6.81302C6.57912 6.33895 6.35421 6.34839 6.13831 6.37669C6.34522 3.83868 7.77561 2.56494 10.4115 2.56494H16.169C19.0388 2.56494 20.4782 4.07455 20.4782 7.08432Z" stroke="black" stroke-width="1.5" stroke-miterlimit="10" stroke-linecap="round" stroke-linejoin="round"/>
<g filter="url(#filter0_d_275_2260)">
<path d="M12.8452 13.1794H12.8533" stroke="black" stroke-width="2" stroke-linecap="round" stroke-linejoin="round" shape-rendering="crispEdges"/>
</g>
<g filter="url(#filter1_d_275_2260)">
<path d="M9.69686 13.1794H9.70496" stroke="black" stroke-width="2" stroke-linecap="round" stroke-linejoin="round" shape-rendering="crispEdges"/>
</g>
<g filter="url(#filter2_d_275_2260)">
<path d="M6.54767 13.1793H6.55596" stroke="black" stroke-width="2" stroke-linecap="round" stroke-linejoin="round" shape-rendering="crispEdges"/>
</g>
<defs>
<filter id="filter0_d_275_2260" x="7.84521" y="12.1794" width="10.0081" height="10" filterUnits="userSpaceOnUse" color-interpolation-filters="sRGB">
<feFlood flood-opacity="0" result="BackgroundImageFix"/>
<feColorMatrix in="SourceAlpha" type="matrix" values="0 0 0 0 0 0 0 0 0 0 0 0 0 0 0 0 0 0 127 0" result="hardAlpha"/>
<feOffset dy="4"/>
<feGaussianBlur stdDeviation="2"/>
<feComposite in2="hardAlpha" operator="out"/>
<feColorMatrix type="matrix" values="0 0 0 0 0 0 0 0 0 0 0 0 0 0 0 0 0 0 0.25 0"/>
<feBlend mode="normal" in2="BackgroundImageFix" result="effect1_dropShadow_275_2260"/>
<feBlend mode="normal" in="SourceGraphic" in2="effect1_dropShadow_275_2260" result="shape"/>
</filter>
<filter id="filter1_d_275_2260" x="4.69684" y="12.1794" width="10.0081" height="10" filterUnits="userSpaceOnUse" color-interpolation-filters="sRGB">
<feFlood flood-opacity="0" result="BackgroundImageFix"/>
<feColorMatrix in="SourceAlpha" type="matrix" values="0 0 0 0 0 0 0 0 0 0 0 0 0 0 0 0 0 0 127 0" result="hardAlpha"/>
<feOffset dy="4"/>
<feGaussianBlur stdDeviation="2"/>
<feComposite in2="hardAlpha" operator="out"/>
<feColorMatrix type="matrix" values="0 0 0 0 0 0 0 0 0 0 0 0 0 0 0 0 0 0 0.25 0"/>
<feBlend mode="normal" in2="BackgroundImageFix" result="effect1_dropShadow_275_2260"/>
<feBlend mode="normal" in="SourceGraphic" in2="effect1_dropShadow_275_2260" result="shape"/>
</filter>
<filter id="filter2_d_275_2260" x="1.54767" y="12.1793" width="10.0083" height="10" filterUnits="userSpaceOnUse" color-interpolation-filters="sRGB">
<feFlood flood-opacity="0" result="BackgroundImageFix"/>
<feColorMatrix in="SourceAlpha" type="matrix" values="0 0 0 0 0 0 0 0 0 0 0 0 0 0 0 0 0 0 127 0" result="hardAlpha"/>
<feOffset dy="4"/>
<feGaussianBlur stdDeviation="2"/>
<feComposite in2="hardAlpha" operator="out"/>
<feColorMatrix type="matrix" values="0 0 0 0 0 0 0 0 0 0 0 0 0 0 0 0 0 0 0.25 0"/>
<feBlend mode="normal" in2="BackgroundImageFix" result="effect1_dropShadow_275_2260"/>
<feBlend mode="normal" in="SourceGraphic" in2="effect1_dropShadow_275_2260" result="shape"/>
</filter>
</defs>
</svg>
