<svg width="16" height="16" viewBox="0 0 16 16" fill="none" xmlns="http://www.w3.org/2000/svg">
<g clip-path="url(#clip0_275_2203)">
<path d="M7.43396 1.85938H4.94129C2.89129 1.85938 1.60596 3.31071 1.60596 5.36537V10.908C1.60596 12.9627 2.88529 14.414 4.94129 14.414H10.824C12.8806 14.414 14.16 12.9627 14.16 10.908V8.22271" stroke="#776F69" stroke-width="1.33333" stroke-linecap="round" stroke-linejoin="round"/>
<path fill-rule="evenodd" clip-rule="evenodd" d="M5.65763 7.28062L10.6396 2.29862C11.2603 1.67862 12.2663 1.67862 12.887 2.29862L13.6983 3.10995C14.319 3.73062 14.319 4.73728 13.6983 5.35728L8.6923 10.3633C8.42096 10.6346 8.05296 10.7873 7.66896 10.7873H5.17163L5.2343 8.26729C5.24363 7.89662 5.39496 7.54329 5.65763 7.28062Z" stroke="#776F69" stroke-width="1.33333" stroke-linecap="round" stroke-linejoin="round"/>
<path d="M9.88257 3.06836L12.9266 6.11236" stroke="#776F69" stroke-width="1.33333" stroke-linecap="round" stroke-linejoin="round"/>
</g>
<defs>
<clipPath id="clip0_275_2203">
<rect width="15" height="15" fill="white" transform="translate(0.59082 0.5)"/>
</clipPath>
</defs>
</svg>
