<svg width="19" height="20" viewBox="0 0 19 20" fill="none" xmlns="http://www.w3.org/2000/svg">
<path d="M15.242 13.9723C14.5212 13.9723 13.8483 14.2116 13.3678 14.6901L6.4967 10.7181C6.54481 10.4788 6.59293 10.2872 6.59293 10.0479C6.59293 9.80859 6.54481 9.617 6.4967 9.37774L13.2721 5.45382C13.8005 5.93237 14.4733 6.21933 15.242 6.21933C16.8275 6.21933 18.125 4.92711 18.125 3.34792C18.125 1.76883 16.8275 0.476562 15.242 0.476562C13.6564 0.476562 12.359 1.76883 12.359 3.34797C12.359 3.58727 12.4068 3.7789 12.4552 4.01816L5.68002 7.94208C5.15143 7.46349 4.47877 7.17657 3.70993 7.17657C2.12437 7.17657 0.875 8.46879 0.875 10.048C0.875 11.6271 2.17221 12.9194 3.758 12.9194C4.52683 12.9194 5.19949 12.6324 5.72809 12.1538L12.5513 16.1259C12.503 16.317 12.4551 16.5086 12.4551 16.7479C12.4551 18.2795 13.7042 19.5235 15.242 19.5235C16.7796 19.5235 18.0287 18.2795 18.0287 16.7479C18.0288 15.2163 16.7797 13.9723 15.242 13.9723Z" fill="black"/>
</svg>
